<svg width="20" height="20" viewBox="0 0 20 20" fill="none" xmlns="http://www.w3.org/2000/svg">
<path d="M4.34912 6.25C5.21207 6.25 5.91162 5.55045 5.91162 4.6875C5.91162 3.82456 5.21207 3.125 4.34912 3.125C3.48618 3.125 2.78662 3.82456 2.78662 4.6875C2.78662 5.55045 3.48618 6.25 4.34912 6.25Z" fill="white"/>
<path d="M4.34912 11.875C5.21207 11.875 5.91162 11.1754 5.91162 10.3125C5.91162 9.44956 5.21207 8.75 4.34912 8.75C3.48618 8.75 2.78662 9.44956 2.78662 10.3125C2.78662 11.1754 3.48618 11.875 4.34912 11.875Z" fill="white"/>
<path d="M4.34912 17.5C5.21207 17.5 5.91162 16.8004 5.91162 15.9375C5.91162 15.0746 5.21207 14.375 4.34912 14.375C3.48618 14.375 2.78662 15.0746 2.78662 15.9375C2.78662 16.8004 3.48618 17.5 4.34912 17.5Z" fill="white"/>
<path d="M10.2607 6.25C11.1237 6.25 11.8232 5.55045 11.8232 4.6875C11.8232 3.82456 11.1237 3.125 10.2607 3.125C9.3978 3.125 8.69824 3.82456 8.69824 4.6875C8.69824 5.55045 9.3978 6.25 10.2607 6.25Z" fill="white"/>
<path d="M10.2607 11.875C11.1237 11.875 11.8232 11.1754 11.8232 10.3125C11.8232 9.44956 11.1237 8.75 10.2607 8.75C9.3978 8.75 8.69824 9.44956 8.69824 10.3125C8.69824 11.1754 9.3978 11.875 10.2607 11.875Z" fill="white"/>
<path d="M10.2607 17.5C11.1237 17.5 11.8232 16.8004 11.8232 15.9375C11.8232 15.0746 11.1237 14.375 10.2607 14.375C9.3978 14.375 8.69824 15.0746 8.69824 15.9375C8.69824 16.8004 9.3978 17.5 10.2607 17.5Z" fill="white"/>
<path d="M15.8857 6.25C16.7487 6.25 17.4482 5.55045 17.4482 4.6875C17.4482 3.82456 16.7487 3.125 15.8857 3.125C15.0228 3.125 14.3232 3.82456 14.3232 4.6875C14.3232 5.55045 15.0228 6.25 15.8857 6.25Z" fill="white"/>
<path d="M15.8857 11.875C16.7487 11.875 17.4482 11.1754 17.4482 10.3125C17.4482 9.44956 16.7487 8.75 15.8857 8.75C15.0228 8.75 14.3232 9.44956 14.3232 10.3125C14.3232 11.1754 15.0228 11.875 15.8857 11.875Z" fill="white"/>
<path d="M15.8857 17.5C16.7487 17.5 17.4482 16.8004 17.4482 15.9375C17.4482 15.0746 16.7487 14.375 15.8857 14.375C15.0228 14.375 14.3232 15.0746 14.3232 15.9375C14.3232 16.8004 15.0228 17.5 15.8857 17.5Z" fill="white"/>
</svg>
