<svg width="213" height="46" viewBox="0 0 213 46" fill="none" xmlns="http://www.w3.org/2000/svg">
<g clip-path="url(#clip0)">
<path d="M93.8118 22.7531C93.8118 22.7531 92.5216 23.0595 91.432 23.319L89.7732 23.6956C89.7678 23.6956 89.7606 23.6956 89.7588 23.6956C89.7588 23.2505 89.7913 22.7802 89.8979 22.3476C90.0352 21.7926 90.337 21.1438 90.8592 20.8591C91.4284 20.5491 92.1223 20.5131 92.7258 20.7527C93.3492 20.9996 93.6347 21.5998 93.7576 22.2215C93.7919 22.3945 93.8154 22.5693 93.8317 22.7459L93.8118 22.7531ZM98.134 23.6938C98.134 19.3813 95.4091 17.5269 91.9289 17.5269C87.9934 17.5269 85.5287 20.2445 85.5287 23.7155C85.5287 27.4892 87.6266 29.9473 92.1458 29.9473C94.5888 29.9473 95.9729 29.5166 97.6154 28.6966L96.9884 25.8708C95.7344 26.4313 94.5671 26.7755 93.0095 26.7755C91.3019 26.7755 90.328 26.1285 89.9612 24.9211H98.0256C98.0907 24.5985 98.134 24.2327 98.134 23.6938Z" fill="black"/>
<path d="M57.8425 22.7531C57.8425 22.7531 56.5524 23.0595 55.4628 23.319L53.804 23.6956C53.7986 23.6956 53.7913 23.6956 53.7895 23.6956C53.7895 23.2505 53.8221 22.7802 53.9287 22.3476C54.066 21.7926 54.3678 21.1438 54.89 20.8591C55.4592 20.5491 56.153 20.5131 56.7566 20.7527C57.38 20.9996 57.6655 21.5998 57.7883 22.2215C57.8227 22.3945 57.8462 22.5693 57.8624 22.7459L57.8425 22.7531ZM62.1648 23.6938C62.1648 19.3813 59.4399 17.5269 55.9597 17.5269C52.0241 17.5269 49.5594 20.2445 49.5594 23.7155C49.5594 27.4892 51.6573 29.9473 56.1765 29.9473C58.6195 29.9473 60.0037 29.5166 61.6462 28.6966L61.0192 25.8708C59.7651 26.4313 58.5978 26.7755 57.0403 26.7755C55.3327 26.7755 54.3587 26.1285 53.9919 24.9211H62.0564C62.1214 24.5985 62.1648 24.2327 62.1648 23.6938Z" fill="black"/>
<path d="M48.0867 14.3569H44.0934V29.5166H48.0867V14.3569Z" fill="black"/>
<path d="M98.9779 17.9144H103.174L104.055 20.5942C104.608 19.2714 105.852 17.5684 108.056 17.5684C111.083 17.5684 112.727 19.0984 112.727 23.0451V29.5148H108.533C108.533 28.1668 108.535 26.8188 108.537 25.4708C108.537 24.8526 108.526 24.2345 108.535 23.6163C108.542 23.0451 108.582 22.4558 108.278 21.944C108.072 21.5979 107.734 21.3438 107.369 21.1708C106.629 20.8176 105.826 20.8284 105.1 21.2051C104.921 21.297 104.057 21.7637 104.057 21.98V29.5148H99.8633V21.0447L98.9779 17.9144Z" fill="black"/>
<path d="M116.12 20.9546H114.196V17.9143H116.12V16.0131L120.314 15.0291V17.9143H124.53V20.9546H120.314V24.3624C120.314 25.6996 120.963 26.3249 121.935 26.3249C122.929 26.3249 123.493 26.1952 124.335 25.9159L124.832 29.0642C123.686 29.5598 122.259 29.7977 120.81 29.7977C117.761 29.7977 116.117 28.3523 116.117 25.55V20.9546H116.12Z" fill="black"/>
<path d="M132.602 26.498C134.136 26.498 135.045 25.3987 135.045 23.629C135.045 21.8593 134.179 20.8465 132.667 20.8465C131.131 20.8465 130.245 21.8593 130.245 23.6938C130.245 25.4185 131.111 26.498 132.602 26.498ZM132.645 17.462C136.581 17.462 139.456 19.9202 139.456 23.7371C139.456 27.5757 136.581 29.8824 132.602 29.8824C128.645 29.8824 125.833 27.5108 125.833 23.7371C125.835 19.9202 128.625 17.462 132.645 17.462Z" fill="black"/>
<path d="M81.7702 17.8783C81.0276 17.5737 80.1874 17.4602 79.3869 17.5755C78.9785 17.635 78.5792 17.7521 78.2087 17.9342C77.1932 18.4352 76.4 19.5759 75.9735 20.5941C75.6953 19.4227 74.8803 18.3667 73.6913 17.8783C72.9487 17.5737 72.1085 17.4602 71.308 17.5755C70.8996 17.635 70.5003 17.7521 70.1298 17.9342C69.1161 18.4333 68.3247 19.5705 67.8982 20.5851V20.5112L67.0436 17.9143H62.8496L63.7332 21.0447V29.5165H67.9V21.9475C67.9145 21.8917 68.1006 21.7871 68.1331 21.7619C68.621 21.4159 69.1956 21.0591 69.8064 21.014C70.4298 20.9672 71.0442 21.2843 71.4164 21.7781C71.4561 21.8322 71.4941 21.8863 71.5284 21.9439C71.8338 22.4557 71.7922 23.045 71.785 23.6163C71.7778 24.2344 71.7886 24.8526 71.7868 25.4707C71.785 26.8187 71.7832 28.1667 71.7832 29.5147H75.979V23.045C75.979 23.0126 75.979 22.9802 75.979 22.9477V21.9493C75.988 21.8953 76.1795 21.7853 76.2139 21.7619C76.7017 21.4159 77.2764 21.0591 77.8871 21.014C78.5105 20.9672 79.1249 21.2843 79.4971 21.7781C79.5369 21.8322 79.5748 21.8863 79.6091 21.9439C79.9145 22.4557 79.8729 23.045 79.8675 23.6163C79.8603 24.2344 79.8711 24.8526 79.8693 25.4707C79.8675 26.8187 79.8657 28.1667 79.8657 29.5147H84.0597V23.045C84.0579 21.1492 83.785 18.7055 81.7702 17.8783Z" fill="black"/>
<path d="M149.378 17.5702C147.173 17.5702 145.93 19.2732 145.377 20.596L144.493 17.9162H140.298L141.181 21.0465V29.5184H145.377V21.6899C145.975 21.5854 149.219 22.1801 149.835 22.4053V17.5846C149.685 17.5756 149.533 17.5702 149.378 17.5702Z" fill="black"/>
<path d="M38.2985 22.3657C38.2985 22.3657 37.0083 22.672 35.9187 22.9315L34.2599 23.3082C34.2545 23.3082 34.2473 23.3082 34.2455 23.3082C34.2455 22.8631 34.278 22.3927 34.3846 21.9602C34.522 21.4051 34.8237 20.7564 35.3459 20.4716C35.9151 20.1617 36.609 20.1256 37.2125 20.3653C37.8359 20.6122 38.1214 21.2123 38.2443 21.834C38.2786 22.007 38.3021 22.1819 38.3184 22.3585L38.2985 22.3657ZM42.6225 23.3064C42.6225 18.9939 39.8976 17.1395 36.4174 17.1395C32.4819 17.1395 30.0172 19.8571 30.0172 23.328C30.0172 27.1017 32.1151 29.5598 36.6343 29.5598C39.0773 29.5598 40.4614 29.1291 42.1039 28.3091L41.4769 25.4834C40.2229 26.0438 39.0556 26.3881 37.498 26.3881C35.7904 26.3881 34.8165 25.7411 34.4497 24.5337H42.5141C42.5792 24.2129 42.6225 23.8452 42.6225 23.3064Z" fill="black"/>
<path fill-rule="evenodd" clip-rule="evenodd" d="M0 23C0 29.5994 5.36485 34.95 11.9819 34.95C18.599 34.95 23.9639 29.5994 23.9639 23C23.9639 16.4005 18.599 11.05 11.9819 11.05C5.36485 11.05 0 16.4005 0 23ZM8.98599 18.0207H6.9893V27.9793H8.98599V18.0207ZM10.9827 18.0207H16.9728V20.0121H10.9827V18.0207ZM16.9728 22.0034H10.9827V23.9948H16.9728V22.0034ZM10.9827 25.9879H16.9728V27.9793H10.9827V25.9879Z" fill="black"/>
</g>
<path d="M159.353 32.84V17.088H161.025L161.201 18.892C161.553 18.364 162.051 17.8873 162.697 17.462C163.357 17.0367 164.193 16.824 165.205 16.824C166.29 16.824 167.236 17.0733 168.043 17.572C168.849 18.0707 169.473 18.7527 169.913 19.618C170.367 20.4833 170.595 21.466 170.595 22.566C170.595 23.666 170.367 24.6487 169.913 25.514C169.473 26.3647 168.842 27.0393 168.021 27.538C167.214 28.022 166.268 28.264 165.183 28.264C164.288 28.264 163.489 28.0807 162.785 27.714C162.095 27.3473 161.567 26.834 161.201 26.174V32.84H159.353ZM164.985 26.658C165.718 26.658 166.363 26.4893 166.921 26.152C167.478 25.8 167.918 25.316 168.241 24.7C168.563 24.084 168.725 23.3653 168.725 22.544C168.725 21.7227 168.563 21.004 168.241 20.388C167.918 19.772 167.478 19.2953 166.921 18.958C166.363 18.606 165.718 18.43 164.985 18.43C164.251 18.43 163.606 18.606 163.049 18.958C162.491 19.2953 162.051 19.772 161.729 20.388C161.406 21.004 161.245 21.7227 161.245 22.544C161.245 23.3653 161.406 24.084 161.729 24.7C162.051 25.316 162.491 25.8 163.049 26.152C163.606 26.4893 164.251 26.658 164.985 26.658ZM177.149 28.264C175.859 28.264 174.832 27.8753 174.069 27.098C173.307 26.306 172.925 25.096 172.925 23.468V17.088H174.773V23.27C174.773 25.5433 175.705 26.68 177.567 26.68C178.521 26.68 179.305 26.3427 179.921 25.668C180.552 24.9787 180.867 24.0033 180.867 22.742V17.088H182.715V28H181.043L180.911 26.042C180.574 26.7313 180.068 27.274 179.393 27.67C178.733 28.066 177.985 28.264 177.149 28.264ZM185.757 28V12.16H187.605V28H185.757ZM194.814 28.264C193.509 28.264 192.423 27.934 191.558 27.274C190.693 26.614 190.187 25.7193 190.04 24.59H191.932C192.049 25.162 192.35 25.6607 192.834 26.086C193.333 26.4967 194 26.702 194.836 26.702C195.613 26.702 196.185 26.5407 196.552 26.218C196.919 25.8807 197.102 25.4847 197.102 25.03C197.102 24.37 196.86 23.93 196.376 23.71C195.907 23.49 195.239 23.292 194.374 23.116C193.787 22.9987 193.201 22.83 192.614 22.61C192.027 22.39 191.536 22.082 191.14 21.686C190.744 21.2753 190.546 20.74 190.546 20.08C190.546 19.1267 190.898 18.3493 191.602 17.748C192.321 17.132 193.289 16.824 194.506 16.824C195.665 16.824 196.611 17.1173 197.344 17.704C198.092 18.276 198.525 19.0973 198.642 20.168H196.816C196.743 19.6107 196.501 19.178 196.09 18.87C195.694 18.5473 195.159 18.386 194.484 18.386C193.824 18.386 193.311 18.5253 192.944 18.804C192.592 19.0827 192.416 19.4493 192.416 19.904C192.416 20.344 192.643 20.6887 193.098 20.938C193.567 21.1873 194.198 21.4 194.99 21.576C195.665 21.7227 196.303 21.906 196.904 22.126C197.52 22.3313 198.019 22.6467 198.4 23.072C198.796 23.4827 198.994 24.084 198.994 24.876C199.009 25.8587 198.635 26.6727 197.872 27.318C197.124 27.9487 196.105 28.264 194.814 28.264ZM206.54 28.264C205.499 28.264 204.575 28.0293 203.768 27.56C202.961 27.076 202.323 26.4087 201.854 25.558C201.399 24.7073 201.172 23.7027 201.172 22.544C201.172 21.4 201.399 20.4027 201.854 19.552C202.309 18.6867 202.939 18.0193 203.746 17.55C204.567 17.066 205.513 16.824 206.584 16.824C207.64 16.824 208.549 17.066 209.312 17.55C210.089 18.0193 210.683 18.6427 211.094 19.42C211.505 20.1973 211.71 21.0333 211.71 21.928C211.71 22.0893 211.703 22.2507 211.688 22.412C211.688 22.5733 211.688 22.7567 211.688 22.962H202.998C203.042 23.798 203.233 24.4947 203.57 25.052C203.922 25.5947 204.355 26.0053 204.868 26.284C205.396 26.5627 205.953 26.702 206.54 26.702C207.303 26.702 207.941 26.526 208.454 26.174C208.967 25.822 209.341 25.3453 209.576 24.744H211.402C211.109 25.756 210.544 26.5993 209.708 27.274C208.887 27.934 207.831 28.264 206.54 28.264ZM206.54 18.386C205.66 18.386 204.875 18.6573 204.186 19.2C203.511 19.728 203.123 20.5053 203.02 21.532H209.884C209.84 20.5493 209.503 19.7793 208.872 19.222C208.241 18.6647 207.464 18.386 206.54 18.386Z" fill="black"/>
<defs>
<clipPath id="clip0">
<rect width="149.835" height="23.9" fill="white" transform="translate(0 11.05)"/>
</clipPath>
</defs>
</svg>
